<?xml version="1.0" encoding="utf-8" standalone="no"?>
<!DOCTYPE svg PUBLIC "-//W3C//DTD SVG 1.1//EN"
  "http://www.w3.org/Graphics/SVG/1.1/DTD/svg11.dtd">
<svg xmlns:xlink="http://www.w3.org/1999/xlink" width="1440pt" height="432pt" viewBox="0 0 1440 432" xmlns="http://www.w3.org/2000/svg" version="1.1">
 <metadata>
  <rdf:RDF xmlns:dc="http://purl.org/dc/elements/1.1/" xmlns:cc="http://creativecommons.org/ns#" xmlns:rdf="http://www.w3.org/1999/02/22-rdf-syntax-ns#">
   <cc:Work>
    <dc:type rdf:resource="http://purl.org/dc/dcmitype/StillImage"/>
    <dc:date>2025-12-18T17:11:40.536772</dc:date>
    <dc:format>image/svg+xml</dc:format>
    <dc:creator>
     <cc:Agent>
      <dc:title>Matplotlib v3.7.5, https://matplotlib.org/</dc:title>
     </cc:Agent>
    </dc:creator>
   </cc:Work>
  </rdf:RDF>
 </metadata>
 <defs>
  <style type="text/css">*{stroke-linejoin: round; stroke-linecap: butt}</style>
 </defs>
 <g id="figure_1">
  <g id="patch_1">
   <path d="M 0 432 
L 1440 432 
L 1440 0 
L 0 0 
z
" style="fill: #ffffff"/>
  </g>
  <g id="axes_1">
   <g id="patch_2">
    <path d="M 84.63 383.5 
L 1420.56 383.5 
L 1420.56 39.12 
L 84.63 39.12 
z
" style="fill: #ffffff"/>
   </g>
   <g id="matplotlib.axis_1">
    <g id="xtick_1">
     <g id="line2d_1">
      <path d="M 216.163102 383.5 
L 216.163102 39.12 
" clip-path="url(#p915ca885db)" style="fill: none; stroke: #cccccc; stroke-width: 1.5; stroke-linecap: round"/>
     </g>
     <g id="text_1">
      <!-- Mental Demand -->
      <g style="fill: #262626" transform="translate(150.54982 408.537422) scale(0.165 -0.165)">
       <defs>
        <path id="DejaVuSans-4d" d="M 628 4666 
L 1569 4666 
L 2759 1491 
L 3956 4666 
L 4897 4666 
L 4897 0 
L 4281 0 
L 4281 4097 
L 3078 897 
L 2444 897 
L 1241 4097 
L 1241 0 
L 628 0 
L 628 4666 
z
" transform="scale(0.015625)"/>
        <path id="DejaVuSans-65" d="M 3597 1894 
L 3597 1613 
L 953 1613 
Q 991 1019 1311 708 
Q 1631 397 2203 397 
Q 2534 397 2845 478 
Q 3156 559 3463 722 
L 3463 178 
Q 3153 47 2828 -22 
Q 2503 -91 2169 -91 
Q 1331 -91 842 396 
Q 353 884 353 1716 
Q 353 2575 817 3079 
Q 1281 3584 2069 3584 
Q 2775 3584 3186 3129 
Q 3597 2675 3597 1894 
z
M 3022 2063 
Q 3016 2534 2758 2815 
Q 2500 3097 2075 3097 
Q 1594 3097 1305 2825 
Q 1016 2553 972 2059 
L 3022 2063 
z
" transform="scale(0.015625)"/>
        <path id="DejaVuSans-6e" d="M 3513 2113 
L 3513 0 
L 2938 0 
L 2938 2094 
Q 2938 2591 2744 2837 
Q 2550 3084 2163 3084 
Q 1697 3084 1428 2787 
Q 1159 2491 1159 1978 
L 1159 0 
L 581 0 
L 581 3500 
L 1159 3500 
L 1159 2956 
Q 1366 3272 1645 3428 
Q 1925 3584 2291 3584 
Q 2894 3584 3203 3211 
Q 3513 2838 3513 2113 
z
" transform="scale(0.015625)"/>
        <path id="DejaVuSans-74" d="M 1172 4494 
L 1172 3500 
L 2356 3500 
L 2356 3053 
L 1172 3053 
L 1172 1153 
Q 1172 725 1289 603 
Q 1406 481 1766 481 
L 2356 481 
L 2356 0 
L 1766 0 
Q 1100 0 847 248 
Q 594 497 594 1153 
L 594 3053 
L 172 3053 
L 172 3500 
L 594 3500 
L 594 4494 
L 1172 4494 
z
" transform="scale(0.015625)"/>
        <path id="DejaVuSans-61" d="M 2194 1759 
Q 1497 1759 1228 1600 
Q 959 1441 959 1056 
Q 959 750 1161 570 
Q 1363 391 1709 391 
Q 2188 391 2477 730 
Q 2766 1069 2766 1631 
L 2766 1759 
L 2194 1759 
z
M 3341 1997 
L 3341 0 
L 2766 0 
L 2766 531 
Q 2569 213 2275 61 
Q 1981 -91 1556 -91 
Q 1019 -91 701 211 
Q 384 513 384 1019 
Q 384 1609 779 1909 
Q 1175 2209 1959 2209 
L 2766 2209 
L 2766 2266 
Q 2766 2663 2505 2880 
Q 2244 3097 1772 3097 
Q 1472 3097 1187 3025 
Q 903 2953 641 2809 
L 641 3341 
Q 956 3463 1253 3523 
Q 1550 3584 1831 3584 
Q 2591 3584 2966 3190 
Q 3341 2797 3341 1997 
z
" transform="scale(0.015625)"/>
        <path id="DejaVuSans-6c" d="M 603 4863 
L 1178 4863 
L 1178 0 
L 603 0 
L 603 4863 
z
" transform="scale(0.015625)"/>
        <path id="DejaVuSans-20" transform="scale(0.015625)"/>
        <path id="DejaVuSans-44" d="M 1259 4147 
L 1259 519 
L 2022 519 
Q 2988 519 3436 956 
Q 3884 1394 3884 2338 
Q 3884 3275 3436 3711 
Q 2988 4147 2022 4147 
L 1259 4147 
z
M 628 4666 
L 1925 4666 
Q 3281 4666 3915 4102 
Q 4550 3538 4550 2338 
Q 4550 1131 3912 565 
Q 3275 0 1925 0 
L 628 0 
L 628 4666 
z
" transform="scale(0.015625)"/>
        <path id="DejaVuSans-6d" d="M 3328 2828 
Q 3544 3216 3844 3400 
Q 4144 3584 4550 3584 
Q 5097 3584 5394 3201 
Q 5691 2819 5691 2113 
L 5691 0 
L 5113 0 
L 5113 2094 
Q 5113 2597 4934 2840 
Q 4756 3084 4391 3084 
Q 3944 3084 3684 2787 
Q 3425 2491 3425 1978 
L 3425 0 
L 2847 0 
L 2847 2094 
Q 2847 2600 2669 2842 
Q 2491 3084 2119 3084 
Q 1678 3084 1418 2786 
Q 1159 2488 1159 1978 
L 1159 0 
L 581 0 
L 581 3500 
L 1159 3500 
L 1159 2956 
Q 1356 3278 1631 3431 
Q 1906 3584 2284 3584 
Q 2666 3584 2933 3390 
Q 3200 3197 3328 2828 
z
" transform="scale(0.015625)"/>
        <path id="DejaVuSans-64" d="M 2906 2969 
L 2906 4863 
L 3481 4863 
L 3481 0 
L 2906 0 
L 2906 525 
Q 2725 213 2448 61 
Q 2172 -91 1784 -91 
Q 1150 -91 751 415 
Q 353 922 353 1747 
Q 353 2572 751 3078 
Q 1150 3584 1784 3584 
Q 2172 3584 2448 3432 
Q 2725 3281 2906 2969 
z
M 947 1747 
Q 947 1113 1208 752 
Q 1469 391 1925 391 
Q 2381 391 2643 752 
Q 2906 1113 2906 1747 
Q 2906 2381 2643 2742 
Q 2381 3103 1925 3103 
Q 1469 3103 1208 2742 
Q 947 2381 947 1747 
z
" transform="scale(0.015625)"/>
       </defs>
       <use xlink:href="#DejaVuSans-4d"/>
       <use xlink:href="#DejaVuSans-65" x="86.279297"/>
       <use xlink:href="#DejaVuSans-6e" x="147.802734"/>
       <use xlink:href="#DejaVuSans-74" x="211.181641"/>
       <use xlink:href="#DejaVuSans-61" x="250.390625"/>
       <use xlink:href="#DejaVuSans-6c" x="311.669922"/>
       <use xlink:href="#DejaVuSans-20" x="339.453125"/>
       <use xlink:href="#DejaVuSans-44" x="371.240234"/>
       <use xlink:href="#DejaVuSans-65" x="448.242188"/>
       <use xlink:href="#DejaVuSans-6d" x="509.765625"/>
       <use xlink:href="#DejaVuSans-61" x="607.177734"/>
       <use xlink:href="#DejaVuSans-6e" x="668.457031"/>
       <use xlink:href="#DejaVuSans-64" x="731.835938"/>
      </g>
     </g>
    </g>
    <g id="xtick_2">
     <g id="line2d_2">
      <path d="M 430.735861 383.5 
L 430.735861 39.12 
" clip-path="url(#p915ca885db)" style="fill: none; stroke: #cccccc; stroke-width: 1.5; stroke-linecap: round"/>
     </g>
     <g id="text_2">
      <!-- Physical Demand -->
      <g style="fill: #262626" transform="translate(359.568009 408.537422) scale(0.165 -0.165)">
       <defs>
        <path id="DejaVuSans-50" d="M 1259 4147 
L 1259 2394 
L 2053 2394 
Q 2494 2394 2734 2622 
Q 2975 2850 2975 3272 
Q 2975 3691 2734 3919 
Q 2494 4147 2053 4147 
L 1259 4147 
z
M 628 4666 
L 2053 4666 
Q 2838 4666 3239 4311 
Q 3641 3956 3641 3272 
Q 3641 2581 3239 2228 
Q 2838 1875 2053 1875 
L 1259 1875 
L 1259 0 
L 628 0 
L 628 4666 
z
" transform="scale(0.015625)"/>
        <path id="DejaVuSans-68" d="M 3513 2113 
L 3513 0 
L 2938 0 
L 2938 2094 
Q 2938 2591 2744 2837 
Q 2550 3084 2163 3084 
Q 1697 3084 1428 2787 
Q 1159 2491 1159 1978 
L 1159 0 
L 581 0 
L 581 4863 
L 1159 4863 
L 1159 2956 
Q 1366 3272 1645 3428 
Q 1925 3584 2291 3584 
Q 2894 3584 3203 3211 
Q 3513 2838 3513 2113 
z
" transform="scale(0.015625)"/>
        <path id="DejaVuSans-79" d="M 2059 -325 
Q 1816 -950 1584 -1140 
Q 1353 -1331 966 -1331 
L 506 -1331 
L 506 -850 
L 844 -850 
Q 1081 -850 1212 -737 
Q 1344 -625 1503 -206 
L 1606 56 
L 191 3500 
L 800 3500 
L 1894 763 
L 2988 3500 
L 3597 3500 
L 2059 -325 
z
" transform="scale(0.015625)"/>
        <path id="DejaVuSans-73" d="M 2834 3397 
L 2834 2853 
Q 2591 2978 2328 3040 
Q 2066 3103 1784 3103 
Q 1356 3103 1142 2972 
Q 928 2841 928 2578 
Q 928 2378 1081 2264 
Q 1234 2150 1697 2047 
L 1894 2003 
Q 2506 1872 2764 1633 
Q 3022 1394 3022 966 
Q 3022 478 2636 193 
Q 2250 -91 1575 -91 
Q 1294 -91 989 -36 
Q 684 19 347 128 
L 347 722 
Q 666 556 975 473 
Q 1284 391 1588 391 
Q 1994 391 2212 530 
Q 2431 669 2431 922 
Q 2431 1156 2273 1281 
Q 2116 1406 1581 1522 
L 1381 1569 
Q 847 1681 609 1914 
Q 372 2147 372 2553 
Q 372 3047 722 3315 
Q 1072 3584 1716 3584 
Q 2034 3584 2315 3537 
Q 2597 3491 2834 3397 
z
" transform="scale(0.015625)"/>
        <path id="DejaVuSans-69" d="M 603 3500 
L 1178 3500 
L 1178 0 
L 603 0 
L 603 3500 
z
M 603 4863 
L 1178 4863 
L 1178 4134 
L 603 4134 
L 603 4863 
z
" transform="scale(0.015625)"/>
        <path id="DejaVuSans-63" d="M 3122 3366 
L 3122 2828 
Q 2878 2963 2633 3030 
Q 2388 3097 2138 3097 
Q 1578 3097 1268 2742 
Q 959 2388 959 1747 
Q 959 1106 1268 751 
Q 1578 397 2138 397 
Q 2388 397 2633 464 
Q 2878 531 3122 666 
L 3122 134 
Q 2881 22 2623 -34 
Q 2366 -91 2075 -91 
Q 1284 -91 818 406 
Q 353 903 353 1747 
Q 353 2603 823 3093 
Q 1294 3584 2113 3584 
Q 2378 3584 2631 3529 
Q 2884 3475 3122 3366 
z
" transform="scale(0.015625)"/>
       </defs>
       <use xlink:href="#DejaVuSans-50"/>
       <use xlink:href="#DejaVuSans-68" x="60.302734"/>
       <use xlink:href="#DejaVuSans-79" x="123.681641"/>
       <use xlink:href="#DejaVuSans-73" x="182.861328"/>
       <use xlink:href="#DejaVuSans-69" x="234.960938"/>
       <use xlink:href="#DejaVuSans-63" x="262.744141"/>
       <use xlink:href="#DejaVuSans-61" x="317.724609"/>
       <use xlink:href="#DejaVuSans-6c" x="379.003906"/>
       <use xlink:href="#DejaVuSans-20" x="406.787109"/>
       <use xlink:href="#DejaVuSans-44" x="438.574219"/>
       <use xlink:href="#DejaVuSans-65" x="515.576172"/>
       <use xlink:href="#DejaVuSans-6d" x="577.099609"/>
       <use xlink:href="#DejaVuSans-61" x="674.511719"/>
       <use xlink:href="#DejaVuSans-6e" x="735.791016"/>
       <use xlink:href="#DejaVuSans-64" x="799.169922"/>
      </g>
     </g>
    </g>
    <g id="xtick_3">
     <g id="line2d_3">
      <path d="M 645.30862 383.5 
L 645.30862 39.12 
" clip-path="url(#p915ca885db)" style="fill: none; stroke: #cccccc; stroke-width: 1.5; stroke-linecap: round"/>
     </g>
     <g id="text_3">
      <!-- Temporal Demand -->
      <g style="fill: #262626" transform="translate(569.926823 408.537422) scale(0.165 -0.165)">
       <defs>
        <path id="DejaVuSans-54" d="M -19 4666 
L 3928 4666 
L 3928 4134 
L 2272 4134 
L 2272 0 
L 1638 0 
L 1638 4134 
L -19 4134 
L -19 4666 
z
" transform="scale(0.015625)"/>
        <path id="DejaVuSans-70" d="M 1159 525 
L 1159 -1331 
L 581 -1331 
L 581 3500 
L 1159 3500 
L 1159 2969 
Q 1341 3281 1617 3432 
Q 1894 3584 2278 3584 
Q 2916 3584 3314 3078 
Q 3713 2572 3713 1747 
Q 3713 922 3314 415 
Q 2916 -91 2278 -91 
Q 1894 -91 1617 61 
Q 1341 213 1159 525 
z
M 3116 1747 
Q 3116 2381 2855 2742 
Q 2594 3103 2138 3103 
Q 1681 3103 1420 2742 
Q 1159 2381 1159 1747 
Q 1159 1113 1420 752 
Q 1681 391 2138 391 
Q 2594 391 2855 752 
Q 3116 1113 3116 1747 
z
" transform="scale(0.015625)"/>
        <path id="DejaVuSans-6f" d="M 1959 3097 
Q 1497 3097 1228 2736 
Q 959 2375 959 1747 
Q 959 1119 1226 758 
Q 1494 397 1959 397 
Q 2419 397 2687 759 
Q 2956 1122 2956 1747 
Q 2956 2369 2687 2733 
Q 2419 3097 1959 3097 
z
M 1959 3584 
Q 2709 3584 3137 3096 
Q 3566 2609 3566 1747 
Q 3566 888 3137 398 
Q 2709 -91 1959 -91 
Q 1206 -91 779 398 
Q 353 888 353 1747 
Q 353 2609 779 3096 
Q 1206 3584 1959 3584 
z
" transform="scale(0.015625)"/>
        <path id="DejaVuSans-72" d="M 2631 2963 
Q 2534 3019 2420 3045 
Q 2306 3072 2169 3072 
Q 1681 3072 1420 2755 
Q 1159 2438 1159 1844 
L 1159 0 
L 581 0 
L 581 3500 
L 1159 3500 
L 1159 2956 
Q 1341 3275 1631 3429 
Q 1922 3584 2338 3584 
Q 2397 3584 2469 3576 
Q 2541 3569 2628 3553 
L 2631 2963 
z
" transform="scale(0.015625)"/>
       </defs>
       <use xlink:href="#DejaVuSans-54"/>
       <use xlink:href="#DejaVuSans-65" x="44.083984"/>
       <use xlink:href="#DejaVuSans-6d" x="105.607422"/>
       <use xlink:href="#DejaVuSans-70" x="203.019531"/>
       <use xlink:href="#DejaVuSans-6f" x="266.496094"/>
       <use xlink:href="#DejaVuSans-72" x="327.677734"/>
       <use xlink:href="#DejaVuSans-61" x="368.791016"/>
       <use xlink:href="#DejaVuSans-6c" x="430.070312"/>
       <use xlink:href="#DejaVuSans-20" x="457.853516"/>
       <use xlink:href="#DejaVuSans-44" x="489.640625"/>
       <use xlink:href="#DejaVuSans-65" x="566.642578"/>
       <use xlink:href="#DejaVuSans-6d" x="628.166016"/>
       <use xlink:href="#DejaVuSans-61" x="725.578125"/>
       <use xlink:href="#DejaVuSans-6e" x="786.857422"/>
       <use xlink:href="#DejaVuSans-64" x="850.236328"/>
      </g>
     </g>
    </g>
    <g id="xtick_4">
     <g id="line2d_4">
      <path d="M 859.88138 383.5 
L 859.88138 39.12 
" clip-path="url(#p915ca885db)" style="fill: none; stroke: #cccccc; stroke-width: 1.5; stroke-linecap: round"/>
     </g>
     <g id="text_4">
      <!-- Performance -->
      <g style="fill: #262626" transform="translate(807.606028 408.537422) scale(0.165 -0.165)">
       <defs>
        <path id="DejaVuSans-66" d="M 2375 4863 
L 2375 4384 
L 1825 4384 
Q 1516 4384 1395 4259 
Q 1275 4134 1275 3809 
L 1275 3500 
L 2222 3500 
L 2222 3053 
L 1275 3053 
L 1275 0 
L 697 0 
L 697 3053 
L 147 3053 
L 147 3500 
L 697 3500 
L 697 3744 
Q 697 4328 969 4595 
Q 1241 4863 1831 4863 
L 2375 4863 
z
" transform="scale(0.015625)"/>
       </defs>
       <use xlink:href="#DejaVuSans-50"/>
       <use xlink:href="#DejaVuSans-65" x="56.677734"/>
       <use xlink:href="#DejaVuSans-72" x="118.201172"/>
       <use xlink:href="#DejaVuSans-66" x="159.314453"/>
       <use xlink:href="#DejaVuSans-6f" x="194.519531"/>
       <use xlink:href="#DejaVuSans-72" x="255.701172"/>
       <use xlink:href="#DejaVuSans-6d" x="295.064453"/>
       <use xlink:href="#DejaVuSans-61" x="392.476562"/>
       <use xlink:href="#DejaVuSans-6e" x="453.755859"/>
       <use xlink:href="#DejaVuSans-63" x="517.134766"/>
       <use xlink:href="#DejaVuSans-65" x="572.115234"/>
      </g>
     </g>
    </g>
    <g id="xtick_5">
     <g id="line2d_5">
      <path d="M 1074.454139 383.5 
L 1074.454139 39.12 
" clip-path="url(#p915ca885db)" style="fill: none; stroke: #cccccc; stroke-width: 1.5; stroke-linecap: round"/>
     </g>
     <g id="text_5">
      <!-- Effort -->
      <g style="fill: #262626" transform="translate(1051.758905 408.537422) scale(0.165 -0.165)">
       <defs>
        <path id="DejaVuSans-45" d="M 628 4666 
L 3578 4666 
L 3578 4134 
L 1259 4134 
L 1259 2753 
L 3481 2753 
L 3481 2222 
L 1259 2222 
L 1259 531 
L 3634 531 
L 3634 0 
L 628 0 
L 628 4666 
z
" transform="scale(0.015625)"/>
       </defs>
       <use xlink:href="#DejaVuSans-45"/>
       <use xlink:href="#DejaVuSans-66" x="63.183594"/>
       <use xlink:href="#DejaVuSans-66" x="98.388672"/>
       <use xlink:href="#DejaVuSans-6f" x="133.59375"/>
       <use xlink:href="#DejaVuSans-72" x="194.775391"/>
       <use xlink:href="#DejaVuSans-74" x="235.888672"/>
      </g>
     </g>
    </g>
    <g id="xtick_6">
     <g id="line2d_6">
      <path d="M 1289.026898 383.5 
L 1289.026898 39.12 
" clip-path="url(#p915ca885db)" style="fill: none; stroke: #cccccc; stroke-width: 1.5; stroke-linecap: round"/>
     </g>
     <g id="text_6">
      <!-- Frustration -->
      <g style="fill: #262626" transform="translate(1244.478188 408.537422) scale(0.165 -0.165)">
       <defs>
        <path id="DejaVuSans-46" d="M 628 4666 
L 3309 4666 
L 3309 4134 
L 1259 4134 
L 1259 2759 
L 3109 2759 
L 3109 2228 
L 1259 2228 
L 1259 0 
L 628 0 
L 628 4666 
z
" transform="scale(0.015625)"/>
        <path id="DejaVuSans-75" d="M 544 1381 
L 544 3500 
L 1119 3500 
L 1119 1403 
Q 1119 906 1312 657 
Q 1506 409 1894 409 
Q 2359 409 2629 706 
Q 2900 1003 2900 1516 
L 2900 3500 
L 3475 3500 
L 3475 0 
L 2900 0 
L 2900 538 
Q 2691 219 2414 64 
Q 2138 -91 1772 -91 
Q 1169 -91 856 284 
Q 544 659 544 1381 
z
M 1991 3584 
L 1991 3584 
z
" transform="scale(0.015625)"/>
       </defs>
       <use xlink:href="#DejaVuSans-46"/>
       <use xlink:href="#DejaVuSans-72" x="50.269531"/>
       <use xlink:href="#DejaVuSans-75" x="91.382812"/>
       <use xlink:href="#DejaVuSans-73" x="154.761719"/>
       <use xlink:href="#DejaVuSans-74" x="206.861328"/>
       <use xlink:href="#DejaVuSans-72" x="246.070312"/>
       <use xlink:href="#DejaVuSans-61" x="287.183594"/>
       <use xlink:href="#DejaVuSans-74" x="348.462891"/>
       <use xlink:href="#DejaVuSans-69" x="387.671875"/>
       <use xlink:href="#DejaVuSans-6f" x="415.455078"/>
       <use xlink:href="#DejaVuSans-6e" x="476.636719"/>
      </g>
     </g>
    </g>
   </g>
   <g id="matplotlib.axis_2">
    <g id="ytick_1">
     <g id="line2d_7">
      <path d="M 84.63 383.5 
L 1420.56 383.5 
" clip-path="url(#p915ca885db)" style="fill: none; stroke: #cccccc; stroke-width: 1.5; stroke-linecap: round"/>
     </g>
     <g id="text_7">
      <!-- 0 -->
      <g style="fill: #262626" transform="translate(61.631875 389.768711) scale(0.165 -0.165)">
       <defs>
        <path id="DejaVuSans-30" d="M 2034 4250 
Q 1547 4250 1301 3770 
Q 1056 3291 1056 2328 
Q 1056 1369 1301 889 
Q 1547 409 2034 409 
Q 2525 409 2770 889 
Q 3016 1369 3016 2328 
Q 3016 3291 2770 3770 
Q 2525 4250 2034 4250 
z
M 2034 4750 
Q 2819 4750 3233 4129 
Q 3647 3509 3647 2328 
Q 3647 1150 3233 529 
Q 2819 -91 2034 -91 
Q 1250 -91 836 529 
Q 422 1150 422 2328 
Q 422 3509 836 4129 
Q 1250 4750 2034 4750 
z
" transform="scale(0.015625)"/>
       </defs>
       <use xlink:href="#DejaVuSans-30"/>
      </g>
     </g>
    </g>
    <g id="ytick_2">
     <g id="line2d_8">
      <path d="M 84.63 334.302857 
L 1420.56 334.302857 
" clip-path="url(#p915ca885db)" style="fill: none; stroke: #cccccc; stroke-width: 1.5; stroke-linecap: round"/>
     </g>
     <g id="text_8">
      <!-- 20 -->
      <g style="fill: #262626" transform="translate(51.13375 340.571568) scale(0.165 -0.165)">
       <defs>
        <path id="DejaVuSans-32" d="M 1228 531 
L 3431 531 
L 3431 0 
L 469 0 
L 469 531 
Q 828 903 1448 1529 
Q 2069 2156 2228 2338 
Q 2531 2678 2651 2914 
Q 2772 3150 2772 3378 
Q 2772 3750 2511 3984 
Q 2250 4219 1831 4219 
Q 1534 4219 1204 4116 
Q 875 4013 500 3803 
L 500 4441 
Q 881 4594 1212 4672 
Q 1544 4750 1819 4750 
Q 2544 4750 2975 4387 
Q 3406 4025 3406 3419 
Q 3406 3131 3298 2873 
Q 3191 2616 2906 2266 
Q 2828 2175 2409 1742 
Q 1991 1309 1228 531 
z
" transform="scale(0.015625)"/>
       </defs>
       <use xlink:href="#DejaVuSans-32"/>
       <use xlink:href="#DejaVuSans-30" x="63.623047"/>
      </g>
     </g>
    </g>
    <g id="ytick_3">
     <g id="line2d_9">
      <path d="M 84.63 285.105714 
L 1420.56 285.105714 
" clip-path="url(#p915ca885db)" style="fill: none; stroke: #cccccc; stroke-width: 1.5; stroke-linecap: round"/>
     </g>
     <g id="text_9">
      <!-- 40 -->
      <g style="fill: #262626" transform="translate(51.13375 291.374425) scale(0.165 -0.165)">
       <defs>
        <path id="DejaVuSans-34" d="M 2419 4116 
L 825 1625 
L 2419 1625 
L 2419 4116 
z
M 2253 4666 
L 3047 4666 
L 3047 1625 
L 3713 1625 
L 3713 1100 
L 3047 1100 
L 3047 0 
L 2419 0 
L 2419 1100 
L 313 1100 
L 313 1709 
L 2253 4666 
z
" transform="scale(0.015625)"/>
       </defs>
       <use xlink:href="#DejaVuSans-34"/>
       <use xlink:href="#DejaVuSans-30" x="63.623047"/>
      </g>
     </g>
    </g>
    <g id="ytick_4">
     <g id="line2d_10">
      <path d="M 84.63 235.908571 
L 1420.56 235.908571 
" clip-path="url(#p915ca885db)" style="fill: none; stroke: #cccccc; stroke-width: 1.5; stroke-linecap: round"/>
     </g>
     <g id="text_10">
      <!-- 60 -->
      <g style="fill: #262626" transform="translate(51.13375 242.177282) scale(0.165 -0.165)">
       <defs>
        <path id="DejaVuSans-36" d="M 2113 2584 
Q 1688 2584 1439 2293 
Q 1191 2003 1191 1497 
Q 1191 994 1439 701 
Q 1688 409 2113 409 
Q 2538 409 2786 701 
Q 3034 994 3034 1497 
Q 3034 2003 2786 2293 
Q 2538 2584 2113 2584 
z
M 3366 4563 
L 3366 3988 
Q 3128 4100 2886 4159 
Q 2644 4219 2406 4219 
Q 1781 4219 1451 3797 
Q 1122 3375 1075 2522 
Q 1259 2794 1537 2939 
Q 1816 3084 2150 3084 
Q 2853 3084 3261 2657 
Q 3669 2231 3669 1497 
Q 3669 778 3244 343 
Q 2819 -91 2113 -91 
Q 1303 -91 875 529 
Q 447 1150 447 2328 
Q 447 3434 972 4092 
Q 1497 4750 2381 4750 
Q 2619 4750 2861 4703 
Q 3103 4656 3366 4563 
z
" transform="scale(0.015625)"/>
       </defs>
       <use xlink:href="#DejaVuSans-36"/>
       <use xlink:href="#DejaVuSans-30" x="63.623047"/>
      </g>
     </g>
    </g>
    <g id="ytick_5">
     <g id="line2d_11">
      <path d="M 84.63 186.711429 
L 1420.56 186.711429 
" clip-path="url(#p915ca885db)" style="fill: none; stroke: #cccccc; stroke-width: 1.5; stroke-linecap: round"/>
     </g>
     <g id="text_11">
      <!-- 80 -->
      <g style="fill: #262626" transform="translate(51.13375 192.98014) scale(0.165 -0.165)">
       <defs>
        <path id="DejaVuSans-38" d="M 2034 2216 
Q 1584 2216 1326 1975 
Q 1069 1734 1069 1313 
Q 1069 891 1326 650 
Q 1584 409 2034 409 
Q 2484 409 2743 651 
Q 3003 894 3003 1313 
Q 3003 1734 2745 1975 
Q 2488 2216 2034 2216 
z
M 1403 2484 
Q 997 2584 770 2862 
Q 544 3141 544 3541 
Q 544 4100 942 4425 
Q 1341 4750 2034 4750 
Q 2731 4750 3128 4425 
Q 3525 4100 3525 3541 
Q 3525 3141 3298 2862 
Q 3072 2584 2669 2484 
Q 3125 2378 3379 2068 
Q 3634 1759 3634 1313 
Q 3634 634 3220 271 
Q 2806 -91 2034 -91 
Q 1263 -91 848 271 
Q 434 634 434 1313 
Q 434 1759 690 2068 
Q 947 2378 1403 2484 
z
M 1172 3481 
Q 1172 3119 1398 2916 
Q 1625 2713 2034 2713 
Q 2441 2713 2670 2916 
Q 2900 3119 2900 3481 
Q 2900 3844 2670 4047 
Q 2441 4250 2034 4250 
Q 1625 4250 1398 4047 
Q 1172 3844 1172 3481 
z
" transform="scale(0.015625)"/>
       </defs>
       <use xlink:href="#DejaVuSans-38"/>
       <use xlink:href="#DejaVuSans-30" x="63.623047"/>
      </g>
     </g>
    </g>
    <g id="ytick_6">
     <g id="line2d_12">
      <path d="M 84.63 137.514286 
L 1420.56 137.514286 
" clip-path="url(#p915ca885db)" style="fill: none; stroke: #cccccc; stroke-width: 1.5; stroke-linecap: round"/>
     </g>
     <g id="text_12">
      <!-- 100 -->
      <g style="fill: #262626" transform="translate(40.635625 143.782997) scale(0.165 -0.165)">
       <defs>
        <path id="DejaVuSans-31" d="M 794 531 
L 1825 531 
L 1825 4091 
L 703 3866 
L 703 4441 
L 1819 4666 
L 2450 4666 
L 2450 531 
L 3481 531 
L 3481 0 
L 794 0 
L 794 531 
z
" transform="scale(0.015625)"/>
       </defs>
       <use xlink:href="#DejaVuSans-31"/>
       <use xlink:href="#DejaVuSans-30" x="63.623047"/>
       <use xlink:href="#DejaVuSans-30" x="127.246094"/>
      </g>
     </g>
    </g>
    <g id="text_13">
     <!-- NASA TLX Score -->
     <g style="fill: #262626" transform="translate(32.892187 283.840156) rotate(-90) scale(0.18 -0.18)">
      <defs>
       <path id="DejaVuSans-4e" d="M 628 4666 
L 1478 4666 
L 3547 763 
L 3547 4666 
L 4159 4666 
L 4159 0 
L 3309 0 
L 1241 3903 
L 1241 0 
L 628 0 
L 628 4666 
z
" transform="scale(0.015625)"/>
       <path id="DejaVuSans-41" d="M 2188 4044 
L 1331 1722 
L 3047 1722 
L 2188 4044 
z
M 1831 4666 
L 2547 4666 
L 4325 0 
L 3669 0 
L 3244 1197 
L 1141 1197 
L 716 0 
L 50 0 
L 1831 4666 
z
" transform="scale(0.015625)"/>
       <path id="DejaVuSans-53" d="M 3425 4513 
L 3425 3897 
Q 3066 4069 2747 4153 
Q 2428 4238 2131 4238 
Q 1616 4238 1336 4038 
Q 1056 3838 1056 3469 
Q 1056 3159 1242 3001 
Q 1428 2844 1947 2747 
L 2328 2669 
Q 3034 2534 3370 2195 
Q 3706 1856 3706 1288 
Q 3706 609 3251 259 
Q 2797 -91 1919 -91 
Q 1588 -91 1214 -16 
Q 841 59 441 206 
L 441 856 
Q 825 641 1194 531 
Q 1563 422 1919 422 
Q 2459 422 2753 634 
Q 3047 847 3047 1241 
Q 3047 1584 2836 1778 
Q 2625 1972 2144 2069 
L 1759 2144 
Q 1053 2284 737 2584 
Q 422 2884 422 3419 
Q 422 4038 858 4394 
Q 1294 4750 2059 4750 
Q 2388 4750 2728 4690 
Q 3069 4631 3425 4513 
z
" transform="scale(0.015625)"/>
       <path id="DejaVuSans-4c" d="M 628 4666 
L 1259 4666 
L 1259 531 
L 3531 531 
L 3531 0 
L 628 0 
L 628 4666 
z
" transform="scale(0.015625)"/>
       <path id="DejaVuSans-58" d="M 403 4666 
L 1081 4666 
L 2241 2931 
L 3406 4666 
L 4084 4666 
L 2584 2425 
L 4184 0 
L 3506 0 
L 2194 1984 
L 872 0 
L 191 0 
L 1856 2491 
L 403 4666 
z
" transform="scale(0.015625)"/>
      </defs>
      <use xlink:href="#DejaVuSans-4e"/>
      <use xlink:href="#DejaVuSans-41" x="74.804688"/>
      <use xlink:href="#DejaVuSans-53" x="143.212891"/>
      <use xlink:href="#DejaVuSans-41" x="208.564453"/>
      <use xlink:href="#DejaVuSans-20" x="276.972656"/>
      <use xlink:href="#DejaVuSans-54" x="308.759766"/>
      <use xlink:href="#DejaVuSans-4c" x="369.84375"/>
      <use xlink:href="#DejaVuSans-58" x="425.556641"/>
      <use xlink:href="#DejaVuSans-20" x="494.0625"/>
      <use xlink:href="#DejaVuSans-53" x="525.849609"/>
      <use xlink:href="#DejaVuSans-63" x="589.326172"/>
      <use xlink:href="#DejaVuSans-6f" x="644.306641"/>
      <use xlink:href="#DejaVuSans-72" x="705.488281"/>
      <use xlink:href="#DejaVuSans-65" x="744.351562"/>
     </g>
    </g>
   </g>
   <g id="patch_3">
    <path d="M 145.354091 383.5 
L 192.560098 383.5 
L 192.560098 228.529 
L 145.354091 228.529 
z
" clip-path="url(#p915ca885db)" style="fill: #66c2a5; stroke: #000000; stroke-width: 1.5; stroke-linejoin: miter"/>
   </g>
   <g id="patch_4">
    <path d="M 359.92685 383.5 
L 407.132857 383.5 
L 407.132857 199.010714 
L 359.92685 199.010714 
z
" clip-path="url(#p915ca885db)" style="fill: #66c2a5; stroke: #000000; stroke-width: 1.5; stroke-linejoin: miter"/>
   </g>
   <g id="patch_5">
    <path d="M 574.49961 383.5 
L 621.705617 383.5 
L 621.705617 293.715214 
L 574.49961 293.715214 
z
" clip-path="url(#p915ca885db)" style="fill: #66c2a5; stroke: #000000; stroke-width: 1.5; stroke-linejoin: miter"/>
   </g>
   <g id="patch_6">
    <path d="M 789.072369 383.5 
L 836.278376 383.5 
L 836.278376 294.945143 
L 789.072369 294.945143 
z
" clip-path="url(#p915ca885db)" style="fill: #66c2a5; stroke: #000000; stroke-width: 1.5; stroke-linejoin: miter"/>
   </g>
   <g id="patch_7">
    <path d="M 1003.645128 383.5 
L 1050.851136 383.5 
L 1050.851136 208.850143 
L 1003.645128 208.850143 
z
" clip-path="url(#p915ca885db)" style="fill: #66c2a5; stroke: #000000; stroke-width: 1.5; stroke-linejoin: miter"/>
   </g>
   <g id="patch_8">
    <path d="M 1218.217888 383.5 
L 1265.423895 383.5 
L 1265.423895 262.967 
L 1218.217888 262.967 
z
" clip-path="url(#p915ca885db)" style="fill: #66c2a5; stroke: #000000; stroke-width: 1.5; stroke-linejoin: miter"/>
   </g>
   <g id="patch_9">
    <path d="M 192.560098 383.5 
L 239.766105 383.5 
L 239.766105 269.116643 
L 192.560098 269.116643 
z
" clip-path="url(#p915ca885db)" style="fill: #fc8d62; stroke: #000000; stroke-width: 1.5; stroke-linejoin: miter"/>
   </g>
   <g id="patch_10">
    <path d="M 407.132857 383.5 
L 454.338864 383.5 
L 454.338864 361.361286 
L 407.132857 361.361286 
z
" clip-path="url(#p915ca885db)" style="fill: #fc8d62; stroke: #000000; stroke-width: 1.5; stroke-linejoin: miter"/>
   </g>
   <g id="patch_11">
    <path d="M 621.705617 383.5 
L 668.911624 383.5 
L 668.911624 266.656786 
L 621.705617 266.656786 
z
" clip-path="url(#p915ca885db)" style="fill: #fc8d62; stroke: #000000; stroke-width: 1.5; stroke-linejoin: miter"/>
   </g>
   <g id="patch_12">
    <path d="M 836.278376 383.5 
L 883.484383 383.5 
L 883.484383 249.437786 
L 836.278376 249.437786 
z
" clip-path="url(#p915ca885db)" style="fill: #fc8d62; stroke: #000000; stroke-width: 1.5; stroke-linejoin: miter"/>
   </g>
   <g id="patch_13">
    <path d="M 1050.851136 383.5 
L 1098.057143 383.5 
L 1098.057143 278.956071 
L 1050.851136 278.956071 
z
" clip-path="url(#p915ca885db)" style="fill: #fc8d62; stroke: #000000; stroke-width: 1.5; stroke-linejoin: miter"/>
   </g>
   <g id="patch_14">
    <path d="M 1265.423895 383.5 
L 1312.629902 383.5 
L 1312.629902 266.656786 
L 1265.423895 266.656786 
z
" clip-path="url(#p915ca885db)" style="fill: #fc8d62; stroke: #000000; stroke-width: 1.5; stroke-linejoin: miter"/>
   </g>
   <g id="patch_15">
    <path d="M 239.766105 383.5 
L 286.972112 383.5 
L 286.972112 221.149429 
L 239.766105 221.149429 
z
" clip-path="url(#p915ca885db)" style="fill: #8da0cb; stroke: #000000; stroke-width: 1.5; stroke-linejoin: miter"/>
   </g>
   <g id="patch_16">
    <path d="M 454.338864 383.5 
L 501.544872 383.5 
L 501.544872 293.715214 
L 454.338864 293.715214 
z
" clip-path="url(#p915ca885db)" style="fill: #8da0cb; stroke: #000000; stroke-width: 1.5; stroke-linejoin: miter"/>
   </g>
   <g id="patch_17">
    <path d="M 668.911624 383.5 
L 716.117631 383.5 
L 716.117631 245.748 
L 668.911624 245.748 
z
" clip-path="url(#p915ca885db)" style="fill: #8da0cb; stroke: #000000; stroke-width: 1.5; stroke-linejoin: miter"/>
   </g>
   <g id="patch_18">
    <path d="M 883.484383 383.5 
L 930.69039 383.5 
L 930.69039 224.839214 
L 883.484383 224.839214 
z
" clip-path="url(#p915ca885db)" style="fill: #8da0cb; stroke: #000000; stroke-width: 1.5; stroke-linejoin: miter"/>
   </g>
   <g id="patch_19">
    <path d="M 1098.057143 383.5 
L 1145.26315 383.5 
L 1145.26315 235.908571 
L 1098.057143 235.908571 
z
" clip-path="url(#p915ca885db)" style="fill: #8da0cb; stroke: #000000; stroke-width: 1.5; stroke-linejoin: miter"/>
   </g>
   <g id="patch_20">
    <path d="M 1312.629902 383.5 
L 1359.835909 383.5 
L 1359.835909 233.448714 
L 1312.629902 233.448714 
z
" clip-path="url(#p915ca885db)" style="fill: #8da0cb; stroke: #000000; stroke-width: 1.5; stroke-linejoin: miter"/>
   </g>
   <g id="LineCollection_1">
    <path d="M 168.957094 269.197316 
L 168.957094 187.860684 
" clip-path="url(#p915ca885db)" style="fill: none; stroke: #1a1a1a; stroke-width: 2.25"/>
    <path d="M 383.529854 241.61669 
L 383.529854 156.404739 
" clip-path="url(#p915ca885db)" style="fill: none; stroke: #1a1a1a; stroke-width: 2.25"/>
    <path d="M 598.102613 327.04706 
L 598.102613 260.383368 
" clip-path="url(#p915ca885db)" style="fill: none; stroke: #1a1a1a; stroke-width: 2.25"/>
    <path d="M 812.675373 353.155987 
L 812.675373 236.734298 
" clip-path="url(#p915ca885db)" style="fill: none; stroke: #1a1a1a; stroke-width: 2.25"/>
    <path d="M 1027.248132 255.161123 
L 1027.248132 162.539163 
" clip-path="url(#p915ca885db)" style="fill: none; stroke: #1a1a1a; stroke-width: 2.25"/>
    <path d="M 1241.820891 342.422036 
L 1241.820891 183.511964 
" clip-path="url(#p915ca885db)" style="fill: none; stroke: #1a1a1a; stroke-width: 2.25"/>
   </g>
   <g id="line2d_13">
    <defs>
     <path id="me6716b39e6" d="M 6 0 
L -6 -0 
" style="stroke: #1a1a1a"/>
    </defs>
    <g clip-path="url(#p915ca885db)">
     <use xlink:href="#me6716b39e6" x="168.957094" y="269.197316" style="fill: #1a1a1a; stroke: #1a1a1a"/>
     <use xlink:href="#me6716b39e6" x="383.529854" y="241.61669" style="fill: #1a1a1a; stroke: #1a1a1a"/>
     <use xlink:href="#me6716b39e6" x="598.102613" y="327.04706" style="fill: #1a1a1a; stroke: #1a1a1a"/>
     <use xlink:href="#me6716b39e6" x="812.675373" y="353.155987" style="fill: #1a1a1a; stroke: #1a1a1a"/>
     <use xlink:href="#me6716b39e6" x="1027.248132" y="255.161123" style="fill: #1a1a1a; stroke: #1a1a1a"/>
     <use xlink:href="#me6716b39e6" x="1241.820891" y="342.422036" style="fill: #1a1a1a; stroke: #1a1a1a"/>
    </g>
   </g>
   <g id="line2d_14">
    <g clip-path="url(#p915ca885db)">
     <use xlink:href="#me6716b39e6" x="168.957094" y="187.860684" style="fill: #1a1a1a; stroke: #1a1a1a"/>
     <use xlink:href="#me6716b39e6" x="383.529854" y="156.404739" style="fill: #1a1a1a; stroke: #1a1a1a"/>
     <use xlink:href="#me6716b39e6" x="598.102613" y="260.383368" style="fill: #1a1a1a; stroke: #1a1a1a"/>
     <use xlink:href="#me6716b39e6" x="812.675373" y="236.734298" style="fill: #1a1a1a; stroke: #1a1a1a"/>
     <use xlink:href="#me6716b39e6" x="1027.248132" y="162.539163" style="fill: #1a1a1a; stroke: #1a1a1a"/>
     <use xlink:href="#me6716b39e6" x="1241.820891" y="183.511964" style="fill: #1a1a1a; stroke: #1a1a1a"/>
    </g>
   </g>
   <g id="LineCollection_2">
    <path d="M 216.163102 341.544481 
L 216.163102 196.688805 
" clip-path="url(#p915ca885db)" style="fill: none; stroke: #1a1a1a; stroke-width: 2.25"/>
    <path d="M 430.735861 375.324572 
L 430.735861 347.398 
" clip-path="url(#p915ca885db)" style="fill: none; stroke: #1a1a1a; stroke-width: 2.25"/>
    <path d="M 645.30862 340.736659 
L 645.30862 192.576913 
" clip-path="url(#p915ca885db)" style="fill: none; stroke: #1a1a1a; stroke-width: 2.25"/>
    <path d="M 859.88138 328.606725 
L 859.88138 170.268846 
" clip-path="url(#p915ca885db)" style="fill: none; stroke: #1a1a1a; stroke-width: 2.25"/>
    <path d="M 1074.454139 350.261292 
L 1074.454139 207.650851 
" clip-path="url(#p915ca885db)" style="fill: none; stroke: #1a1a1a; stroke-width: 2.25"/>
    <path d="M 1289.026898 328.629674 
L 1289.026898 204.683897 
" clip-path="url(#p915ca885db)" style="fill: none; stroke: #1a1a1a; stroke-width: 2.25"/>
   </g>
   <g id="line2d_15">
    <g clip-path="url(#p915ca885db)">
     <use xlink:href="#me6716b39e6" x="216.163102" y="341.544481" style="fill: #1a1a1a; stroke: #1a1a1a"/>
     <use xlink:href="#me6716b39e6" x="430.735861" y="375.324572" style="fill: #1a1a1a; stroke: #1a1a1a"/>
     <use xlink:href="#me6716b39e6" x="645.30862" y="340.736659" style="fill: #1a1a1a; stroke: #1a1a1a"/>
     <use xlink:href="#me6716b39e6" x="859.88138" y="328.606725" style="fill: #1a1a1a; stroke: #1a1a1a"/>
     <use xlink:href="#me6716b39e6" x="1074.454139" y="350.261292" style="fill: #1a1a1a; stroke: #1a1a1a"/>
     <use xlink:href="#me6716b39e6" x="1289.026898" y="328.629674" style="fill: #1a1a1a; stroke: #1a1a1a"/>
    </g>
   </g>
   <g id="line2d_16">
    <g clip-path="url(#p915ca885db)">
     <use xlink:href="#me6716b39e6" x="216.163102" y="196.688805" style="fill: #1a1a1a; stroke: #1a1a1a"/>
     <use xlink:href="#me6716b39e6" x="430.735861" y="347.398" style="fill: #1a1a1a; stroke: #1a1a1a"/>
     <use xlink:href="#me6716b39e6" x="645.30862" y="192.576913" style="fill: #1a1a1a; stroke: #1a1a1a"/>
     <use xlink:href="#me6716b39e6" x="859.88138" y="170.268846" style="fill: #1a1a1a; stroke: #1a1a1a"/>
     <use xlink:href="#me6716b39e6" x="1074.454139" y="207.650851" style="fill: #1a1a1a; stroke: #1a1a1a"/>
     <use xlink:href="#me6716b39e6" x="1289.026898" y="204.683897" style="fill: #1a1a1a; stroke: #1a1a1a"/>
    </g>
   </g>
   <g id="LineCollection_3">
    <path d="M 263.369109 298.024064 
L 263.369109 144.274793 
" clip-path="url(#p915ca885db)" style="fill: none; stroke: #1a1a1a; stroke-width: 2.25"/>
    <path d="M 477.941868 354.814047 
L 477.941868 232.616381 
" clip-path="url(#p915ca885db)" style="fill: none; stroke: #1a1a1a; stroke-width: 2.25"/>
    <path d="M 692.514627 318.349679 
L 692.514627 173.146321 
" clip-path="url(#p915ca885db)" style="fill: none; stroke: #1a1a1a; stroke-width: 2.25"/>
    <path d="M 907.087387 296.191563 
L 907.087387 153.486866 
" clip-path="url(#p915ca885db)" style="fill: none; stroke: #1a1a1a; stroke-width: 2.25"/>
    <path d="M 1121.660146 300.210824 
L 1121.660146 171.606319 
" clip-path="url(#p915ca885db)" style="fill: none; stroke: #1a1a1a; stroke-width: 2.25"/>
    <path d="M 1336.232906 313.115011 
L 1336.232906 153.782418 
" clip-path="url(#p915ca885db)" style="fill: none; stroke: #1a1a1a; stroke-width: 2.25"/>
   </g>
   <g id="line2d_17">
    <g clip-path="url(#p915ca885db)">
     <use xlink:href="#me6716b39e6" x="263.369109" y="298.024064" style="fill: #1a1a1a; stroke: #1a1a1a"/>
     <use xlink:href="#me6716b39e6" x="477.941868" y="354.814047" style="fill: #1a1a1a; stroke: #1a1a1a"/>
     <use xlink:href="#me6716b39e6" x="692.514627" y="318.349679" style="fill: #1a1a1a; stroke: #1a1a1a"/>
     <use xlink:href="#me6716b39e6" x="907.087387" y="296.191563" style="fill: #1a1a1a; stroke: #1a1a1a"/>
     <use xlink:href="#me6716b39e6" x="1121.660146" y="300.210824" style="fill: #1a1a1a; stroke: #1a1a1a"/>
     <use xlink:href="#me6716b39e6" x="1336.232906" y="313.115011" style="fill: #1a1a1a; stroke: #1a1a1a"/>
    </g>
   </g>
   <g id="line2d_18">
    <g clip-path="url(#p915ca885db)">
     <use xlink:href="#me6716b39e6" x="263.369109" y="144.274793" style="fill: #1a1a1a; stroke: #1a1a1a"/>
     <use xlink:href="#me6716b39e6" x="477.941868" y="232.616381" style="fill: #1a1a1a; stroke: #1a1a1a"/>
     <use xlink:href="#me6716b39e6" x="692.514627" y="173.146321" style="fill: #1a1a1a; stroke: #1a1a1a"/>
     <use xlink:href="#me6716b39e6" x="907.087387" y="153.486866" style="fill: #1a1a1a; stroke: #1a1a1a"/>
     <use xlink:href="#me6716b39e6" x="1121.660146" y="171.606319" style="fill: #1a1a1a; stroke: #1a1a1a"/>
     <use xlink:href="#me6716b39e6" x="1336.232906" y="153.782418" style="fill: #1a1a1a; stroke: #1a1a1a"/>
    </g>
   </g>
   <g id="line2d_19">
    <path d="M 383.529854 135.452024 
L 383.529854 128.072453 
L 477.941868 128.072453 
L 477.941868 135.452024 
" clip-path="url(#p915ca885db)" style="fill: none; stroke: #000000; stroke-width: 1.5; stroke-linecap: round"/>
   </g>
   <g id="line2d_20">
    <path d="M 383.529854 110.853453 
L 383.529854 103.473881 
L 430.735861 103.473881 
L 430.735861 110.853453 
" clip-path="url(#p915ca885db)" style="fill: none; stroke: #000000; stroke-width: 1.5; stroke-linecap: round"/>
   </g>
   <g id="line2d_21">
    <path d="M 477.941868 86.254881 
L 477.941868 78.87531 
L 430.735861 78.87531 
L 430.735861 86.254881 
" clip-path="url(#p915ca885db)" style="fill: none; stroke: #000000; stroke-width: 1.5; stroke-linecap: round"/>
   </g>
   <g id="patch_21">
    <path d="M 84.63 383.5 
L 84.63 39.12 
" style="fill: none; stroke: #cccccc; stroke-width: 1.875; stroke-linejoin: miter; stroke-linecap: square"/>
   </g>
   <g id="patch_22">
    <path d="M 1420.56 383.5 
L 1420.56 39.12 
" style="fill: none; stroke: #cccccc; stroke-width: 1.875; stroke-linejoin: miter; stroke-linecap: square"/>
   </g>
   <g id="patch_23">
    <path d="M 84.63 383.5 
L 1420.56 383.5 
" style="fill: none; stroke: #cccccc; stroke-width: 1.875; stroke-linejoin: miter; stroke-linecap: square"/>
   </g>
   <g id="patch_24">
    <path d="M 84.63 39.12 
L 1420.56 39.12 
" style="fill: none; stroke: #cccccc; stroke-width: 1.875; stroke-linejoin: miter; stroke-linecap: square"/>
   </g>
   <g id="text_14">
    <!-- * -->
    <g style="fill: #262626" transform="translate(427.235861 125.16089) scale(0.14 -0.14)">
     <defs>
      <path id="DejaVuSans-2a" d="M 3009 3897 
L 1888 3291 
L 3009 2681 
L 2828 2375 
L 1778 3009 
L 1778 1831 
L 1422 1831 
L 1422 3009 
L 372 2375 
L 191 2681 
L 1313 3291 
L 191 3897 
L 372 4206 
L 1422 3572 
L 1422 4750 
L 1778 4750 
L 1778 3572 
L 2828 4206 
L 3009 3897 
z
" transform="scale(0.015625)"/>
     </defs>
     <use xlink:href="#DejaVuSans-2a"/>
    </g>
   </g>
   <g id="text_15">
    <!-- *** -->
    <g style="fill: #262626" transform="translate(396.632857 100.562319) scale(0.14 -0.14)">
     <use xlink:href="#DejaVuSans-2a"/>
     <use xlink:href="#DejaVuSans-2a" x="50"/>
     <use xlink:href="#DejaVuSans-2a" x="100"/>
    </g>
   </g>
   <g id="text_16">
    <!-- * -->
    <g style="fill: #262626" transform="translate(450.838864 75.963747) scale(0.14 -0.14)">
     <use xlink:href="#DejaVuSans-2a"/>
    </g>
   </g>
   <g id="text_17">
    <!-- NASA-TLX Scores by Measure - Group 2 -->
    <g style="fill: #262626" transform="translate(576.057188 33.12) scale(0.18 -0.18)">
     <defs>
      <path id="DejaVuSans-2d" d="M 313 2009 
L 1997 2009 
L 1997 1497 
L 313 1497 
L 313 2009 
z
" transform="scale(0.015625)"/>
      <path id="DejaVuSans-62" d="M 3116 1747 
Q 3116 2381 2855 2742 
Q 2594 3103 2138 3103 
Q 1681 3103 1420 2742 
Q 1159 2381 1159 1747 
Q 1159 1113 1420 752 
Q 1681 391 2138 391 
Q 2594 391 2855 752 
Q 3116 1113 3116 1747 
z
M 1159 2969 
Q 1341 3281 1617 3432 
Q 1894 3584 2278 3584 
Q 2916 3584 3314 3078 
Q 3713 2572 3713 1747 
Q 3713 922 3314 415 
Q 2916 -91 2278 -91 
Q 1894 -91 1617 61 
Q 1341 213 1159 525 
L 1159 0 
L 581 0 
L 581 4863 
L 1159 4863 
L 1159 2969 
z
" transform="scale(0.015625)"/>
      <path id="DejaVuSans-47" d="M 3809 666 
L 3809 1919 
L 2778 1919 
L 2778 2438 
L 4434 2438 
L 4434 434 
Q 4069 175 3628 42 
Q 3188 -91 2688 -91 
Q 1594 -91 976 548 
Q 359 1188 359 2328 
Q 359 3472 976 4111 
Q 1594 4750 2688 4750 
Q 3144 4750 3555 4637 
Q 3966 4525 4313 4306 
L 4313 3634 
Q 3963 3931 3569 4081 
Q 3175 4231 2741 4231 
Q 1884 4231 1454 3753 
Q 1025 3275 1025 2328 
Q 1025 1384 1454 906 
Q 1884 428 2741 428 
Q 3075 428 3337 486 
Q 3600 544 3809 666 
z
" transform="scale(0.015625)"/>
     </defs>
     <use xlink:href="#DejaVuSans-4e"/>
     <use xlink:href="#DejaVuSans-41" x="74.804688"/>
     <use xlink:href="#DejaVuSans-53" x="143.212891"/>
     <use xlink:href="#DejaVuSans-41" x="208.564453"/>
     <use xlink:href="#DejaVuSans-2d" x="274.722656"/>
     <use xlink:href="#DejaVuSans-54" x="301.681641"/>
     <use xlink:href="#DejaVuSans-4c" x="362.765625"/>
     <use xlink:href="#DejaVuSans-58" x="418.478516"/>
     <use xlink:href="#DejaVuSans-20" x="486.984375"/>
     <use xlink:href="#DejaVuSans-53" x="518.771484"/>
     <use xlink:href="#DejaVuSans-63" x="582.248047"/>
     <use xlink:href="#DejaVuSans-6f" x="637.228516"/>
     <use xlink:href="#DejaVuSans-72" x="698.410156"/>
     <use xlink:href="#DejaVuSans-65" x="737.273438"/>
     <use xlink:href="#DejaVuSans-73" x="798.796875"/>
     <use xlink:href="#DejaVuSans-20" x="850.896484"/>
     <use xlink:href="#DejaVuSans-62" x="882.683594"/>
     <use xlink:href="#DejaVuSans-79" x="946.160156"/>
     <use xlink:href="#DejaVuSans-20" x="1005.339844"/>
     <use xlink:href="#DejaVuSans-4d" x="1037.126953"/>
     <use xlink:href="#DejaVuSans-65" x="1123.40625"/>
     <use xlink:href="#DejaVuSans-61" x="1184.929688"/>
     <use xlink:href="#DejaVuSans-73" x="1246.208984"/>
     <use xlink:href="#DejaVuSans-75" x="1298.308594"/>
     <use xlink:href="#DejaVuSans-72" x="1361.6875"/>
     <use xlink:href="#DejaVuSans-65" x="1400.550781"/>
     <use xlink:href="#DejaVuSans-20" x="1462.074219"/>
     <use xlink:href="#DejaVuSans-2d" x="1493.861328"/>
     <use xlink:href="#DejaVuSans-20" x="1529.945312"/>
     <use xlink:href="#DejaVuSans-47" x="1561.732422"/>
     <use xlink:href="#DejaVuSans-72" x="1639.222656"/>
     <use xlink:href="#DejaVuSans-6f" x="1678.085938"/>
     <use xlink:href="#DejaVuSans-75" x="1739.267578"/>
     <use xlink:href="#DejaVuSans-70" x="1802.646484"/>
     <use xlink:href="#DejaVuSans-20" x="1866.123047"/>
     <use xlink:href="#DejaVuSans-32" x="1897.910156"/>
    </g>
   </g>
   <g id="legend_1">
    <g id="patch_25">
     <path d="M 1245.879141 124.976719 
L 1409.01 124.976719 
Q 1412.31 124.976719 1412.31 121.676719 
L 1412.31 50.67 
Q 1412.31 47.37 1409.01 47.37 
L 1245.879141 47.37 
Q 1242.579141 47.37 1242.579141 50.67 
L 1242.579141 121.676719 
Q 1242.579141 124.976719 1245.879141 124.976719 
z
" style="fill: #ffffff; opacity: 0.8; stroke: #cccccc; stroke-width: 1.5; stroke-linejoin: miter"/>
    </g>
    <g id="patch_26">
     <path d="M 1249.179141 66.507422 
L 1282.179141 66.507422 
L 1282.179141 54.957422 
L 1249.179141 54.957422 
z
" style="fill: #66c2a5; stroke: #000000; stroke-width: 1.5; stroke-linejoin: miter"/>
    </g>
    <g id="text_18">
     <!-- Kinesthetic -->
     <g style="fill: #262626" transform="translate(1295.379141 66.507422) scale(0.165 -0.165)">
      <defs>
       <path id="DejaVuSans-4b" d="M 628 4666 
L 1259 4666 
L 1259 2694 
L 3353 4666 
L 4166 4666 
L 1850 2491 
L 4331 0 
L 3500 0 
L 1259 2247 
L 1259 0 
L 628 0 
L 628 4666 
z
" transform="scale(0.015625)"/>
      </defs>
      <use xlink:href="#DejaVuSans-4b"/>
      <use xlink:href="#DejaVuSans-69" x="65.576172"/>
      <use xlink:href="#DejaVuSans-6e" x="93.359375"/>
      <use xlink:href="#DejaVuSans-65" x="156.738281"/>
      <use xlink:href="#DejaVuSans-73" x="218.261719"/>
      <use xlink:href="#DejaVuSans-74" x="270.361328"/>
      <use xlink:href="#DejaVuSans-68" x="309.570312"/>
      <use xlink:href="#DejaVuSans-65" x="372.949219"/>
      <use xlink:href="#DejaVuSans-74" x="434.472656"/>
      <use xlink:href="#DejaVuSans-69" x="473.681641"/>
      <use xlink:href="#DejaVuSans-63" x="501.464844"/>
     </g>
    </g>
    <g id="patch_27">
     <path d="M 1249.179141 90.726328 
L 1282.179141 90.726328 
L 1282.179141 79.176328 
L 1249.179141 79.176328 
z
" style="fill: #fc8d62; stroke: #000000; stroke-width: 1.5; stroke-linejoin: miter"/>
    </g>
    <g id="text_19">
     <!-- SpaceMouse -->
     <g style="fill: #262626" transform="translate(1295.379141 90.726328) scale(0.165 -0.165)">
      <use xlink:href="#DejaVuSans-53"/>
      <use xlink:href="#DejaVuSans-70" x="63.476562"/>
      <use xlink:href="#DejaVuSans-61" x="126.953125"/>
      <use xlink:href="#DejaVuSans-63" x="188.232422"/>
      <use xlink:href="#DejaVuSans-65" x="243.212891"/>
      <use xlink:href="#DejaVuSans-4d" x="304.736328"/>
      <use xlink:href="#DejaVuSans-6f" x="391.015625"/>
      <use xlink:href="#DejaVuSans-75" x="452.197266"/>
      <use xlink:href="#DejaVuSans-73" x="515.576172"/>
      <use xlink:href="#DejaVuSans-65" x="567.675781"/>
     </g>
    </g>
    <g id="patch_28">
     <path d="M 1249.179141 114.945234 
L 1282.179141 114.945234 
L 1282.179141 103.395234 
L 1249.179141 103.395234 
z
" style="fill: #8da0cb; stroke: #000000; stroke-width: 1.5; stroke-linejoin: miter"/>
    </g>
    <g id="text_20">
     <!-- Mixed Reality -->
     <g style="fill: #262626" transform="translate(1295.379141 114.945234) scale(0.165 -0.165)">
      <defs>
       <path id="DejaVuSans-78" d="M 3513 3500 
L 2247 1797 
L 3578 0 
L 2900 0 
L 1881 1375 
L 863 0 
L 184 0 
L 1544 1831 
L 300 3500 
L 978 3500 
L 1906 2253 
L 2834 3500 
L 3513 3500 
z
" transform="scale(0.015625)"/>
       <path id="DejaVuSans-52" d="M 2841 2188 
Q 3044 2119 3236 1894 
Q 3428 1669 3622 1275 
L 4263 0 
L 3584 0 
L 2988 1197 
Q 2756 1666 2539 1819 
Q 2322 1972 1947 1972 
L 1259 1972 
L 1259 0 
L 628 0 
L 628 4666 
L 2053 4666 
Q 2853 4666 3247 4331 
Q 3641 3997 3641 3322 
Q 3641 2881 3436 2590 
Q 3231 2300 2841 2188 
z
M 1259 4147 
L 1259 2491 
L 2053 2491 
Q 2509 2491 2742 2702 
Q 2975 2913 2975 3322 
Q 2975 3731 2742 3939 
Q 2509 4147 2053 4147 
L 1259 4147 
z
" transform="scale(0.015625)"/>
      </defs>
      <use xlink:href="#DejaVuSans-4d"/>
      <use xlink:href="#DejaVuSans-69" x="86.279297"/>
      <use xlink:href="#DejaVuSans-78" x="114.0625"/>
      <use xlink:href="#DejaVuSans-65" x="170.117188"/>
      <use xlink:href="#DejaVuSans-64" x="231.640625"/>
      <use xlink:href="#DejaVuSans-20" x="295.117188"/>
      <use xlink:href="#DejaVuSans-52" x="326.904297"/>
      <use xlink:href="#DejaVuSans-65" x="391.886719"/>
      <use xlink:href="#DejaVuSans-61" x="453.410156"/>
      <use xlink:href="#DejaVuSans-6c" x="514.689453"/>
      <use xlink:href="#DejaVuSans-69" x="542.472656"/>
      <use xlink:href="#DejaVuSans-74" x="570.255859"/>
      <use xlink:href="#DejaVuSans-79" x="609.464844"/>
     </g>
    </g>
   </g>
  </g>
 </g>
 <defs>
  <clipPath id="p915ca885db">
   <rect x="84.63" y="39.12" width="1335.93" height="344.38"/>
  </clipPath>
 </defs>
</svg>
